<?xml version="1.0" encoding="UTF-8"?> <svg xmlns="http://www.w3.org/2000/svg" xmlns:xlink="http://www.w3.org/1999/xlink" id="Capa_2" viewBox="0 0 169.63929 169.6394"><defs><style>.cls-1{fill:url(#Degradado_sin_nombre_11);}.cls-2{fill:url(#Degradado_sin_nombre_11-2);}</style><linearGradient id="Degradado_sin_nombre_11" x1="1.1226" y1="169.3793" x2="167.70352" y2="43.47511" gradientUnits="userSpaceOnUse"><stop offset="0" stop-color="#722ccf"></stop><stop offset="1" stop-color="#d270fe"></stop></linearGradient><linearGradient id="Degradado_sin_nombre_11-2" x1="-9.37705" y1="156.94847" x2="157.20388" y2="31.04428" xlink:href="#Degradado_sin_nombre_11"></linearGradient></defs><g id="Capa_1-2"><g><path class="cls-1" d="m0,84.8197c0,46.84463,37.97507,84.8197,84.81965,84.8197h84.81965l-24.843-24.84311c15.34923-15.34934,24.843-36.5543,24.843-59.97659C169.63929,37.97507,131.66422,0,84.81965,0S0,37.97507,0,84.8197Zm144.79629,0c0,16.56209-6.71325,31.55625-17.56682,42.40988l17.56682,17.56672h-59.97665c-33.12407,0-59.97665-26.85242-59.97665-59.97659s26.85258-59.97659,59.97665-59.97659,59.97665,26.85242,59.97665,59.97659Z"></path><path class="cls-2" d="m52.90101,92.07686c-4.00802,0-7.25716-3.24914-7.25716-7.25716s3.24914-7.25716,7.25716-7.25716,7.25716,3.24914,7.25716,7.25716-3.24914,7.25716-7.25716,7.25716Zm36.90544-7.25716c0-4.97081-4.02964-9.00046-9.00046-9.00046s-9.00046,4.02964-9.00046,9.00046,4.02964,9.00046,9.00046,9.00046,9.00046-4.02964,9.00046-9.00046Zm34.18899,0c0-6.07977-4.92863-11.0084-11.0084-11.0084s-11.0084,4.92863-11.0084,11.0084,4.92863,11.0084,11.0084,11.0084,11.0084-4.92863,11.0084-11.0084Z"></path></g></g></svg> 