<svg width="64" height="64" viewBox="0 0 64 64" fill="none" xmlns="http://www.w3.org/2000/svg">
<g filter="url(#filter0_dd_4148_1592)">
<rect x="10" y="6" width="44" height="44" rx="22" fill="white"/>
<g filter="url(#filter1_d_4148_1592)">
<path fill-rule="evenodd" clip-rule="evenodd" d="M32.0007 18.8333C26.938 18.8333 22.834 22.9374 22.834 28C22.834 33.0626 26.938 37.1666 32.0007 37.1666C37.0633 37.1666 41.1673 33.0626 41.1673 28C41.1673 22.9374 37.0633 18.8333 32.0007 18.8333ZM33.6511 23.9969C33.7414 23.5456 33.4487 23.1066 32.9974 23.0163C32.5461 22.9261 32.1071 23.2187 32.0168 23.67L30.3502 32.0034C30.2599 32.4547 30.5526 32.8937 31.0039 32.984C31.4552 33.0742 31.8942 32.7815 31.9845 32.3302L33.6511 23.9969ZM29.6732 24.9109C29.9987 25.2363 29.9987 25.764 29.6732 26.0894L27.7625 28.0001L29.6732 29.9109C29.9987 30.2363 29.9987 30.764 29.6732 31.0894C29.3478 31.4148 28.8202 31.4148 28.4947 31.0894L25.9947 28.5894C25.6693 28.264 25.6693 27.7363 25.9947 27.4109L28.4947 24.9109C28.8202 24.5854 29.3478 24.5854 29.6732 24.9109ZM34.3281 24.9109C34.6535 24.5854 35.1811 24.5854 35.5066 24.9109L38.0066 27.4109C38.332 27.7363 38.332 28.264 38.0066 28.5894L35.5066 31.0894C35.1811 31.4148 34.6535 31.4148 34.3281 31.0894C34.0026 30.764 34.0026 30.2363 34.3281 29.9109L36.2388 28.0001L34.3281 26.0894C34.0026 25.764 34.0026 25.2363 34.3281 24.9109Z" fill="#FF9900"/>
</g>
</g>
<defs>
<filter id="filter0_dd_4148_1592" x="0" y="0" width="64" height="64" filterUnits="userSpaceOnUse" color-interpolation-filters="sRGB">
<feFlood flood-opacity="0" result="BackgroundImageFix"/>
<feColorMatrix in="SourceAlpha" type="matrix" values="0 0 0 0 0 0 0 0 0 0 0 0 0 0 0 0 0 0 127 0" result="hardAlpha"/>
<feMorphology radius="0.5" operator="dilate" in="SourceAlpha" result="effect1_dropShadow_4148_1592"/>
<feOffset/>
<feGaussianBlur stdDeviation="0.25"/>
<feComposite in2="hardAlpha" operator="out"/>
<feColorMatrix type="matrix" values="0 0 0 0 0 0 0 0 0 0 0 0 0 0 0 0 0 0 0.06 0"/>
<feBlend mode="normal" in2="BackgroundImageFix" result="effect1_dropShadow_4148_1592"/>
<feColorMatrix in="SourceAlpha" type="matrix" values="0 0 0 0 0 0 0 0 0 0 0 0 0 0 0 0 0 0 127 0" result="hardAlpha"/>
<feOffset dy="4"/>
<feGaussianBlur stdDeviation="5"/>
<feComposite in2="hardAlpha" operator="out"/>
<feColorMatrix type="matrix" values="0 0 0 0 0 0 0 0 0 0 0 0 0 0 0 0 0 0 0.05 0"/>
<feBlend mode="normal" in2="effect1_dropShadow_4148_1592" result="effect2_dropShadow_4148_1592"/>
<feBlend mode="normal" in="SourceGraphic" in2="effect2_dropShadow_4148_1592" result="shape"/>
</filter>
<filter id="filter1_d_4148_1592" x="16" y="14" width="32" height="32" filterUnits="userSpaceOnUse" color-interpolation-filters="sRGB">
<feFlood flood-opacity="0" result="BackgroundImageFix"/>
<feColorMatrix in="SourceAlpha" type="matrix" values="0 0 0 0 0 0 0 0 0 0 0 0 0 0 0 0 0 0 127 0" result="hardAlpha"/>
<feOffset dy="2"/>
<feGaussianBlur stdDeviation="3"/>
<feComposite in2="hardAlpha" operator="out"/>
<feColorMatrix type="matrix" values="0 0 0 0 1 0 0 0 0 0.6 0 0 0 0 0 0 0 0 0.1 0"/>
<feBlend mode="normal" in2="BackgroundImageFix" result="effect1_dropShadow_4148_1592"/>
<feBlend mode="normal" in="SourceGraphic" in2="effect1_dropShadow_4148_1592" result="shape"/>
</filter>
</defs>
</svg>
