<svg width="64" height="64" viewBox="0 0 64 64" fill="none" xmlns="http://www.w3.org/2000/svg">
<g filter="url(#filter0_dd_4057_4668)">
<rect x="10" y="6" width="44" height="44" rx="22" fill="white"/>
<g filter="url(#filter1_d_4057_4668)">
<path d="M25.0912 31.575C25.012 31.4991 24.9185 31.4397 24.8162 31.4C24.6133 31.3167 24.3858 31.3167 24.1829 31.4C24.0806 31.4397 23.9871 31.4991 23.9079 31.575C23.832 31.6543 23.7725 31.7477 23.7329 31.85C23.6691 32.0018 23.6516 32.169 23.6828 32.3307C23.7139 32.4923 23.7922 32.6411 23.9079 32.7583C23.9889 32.8319 24.0819 32.8911 24.1829 32.9333C24.2826 32.9774 24.3905 33.0002 24.4995 33.0002C24.6086 33.0002 24.7165 32.9774 24.8162 32.9333C24.9172 32.8911 25.0102 32.8319 25.0912 32.7583C25.2068 32.6411 25.2852 32.4923 25.3163 32.3307C25.3475 32.169 25.33 32.0018 25.2662 31.85C25.2265 31.7477 25.1671 31.6543 25.0912 31.575ZM27.8329 24.6667H39.4995C39.7206 24.6667 39.9325 24.5789 40.0888 24.4226C40.2451 24.2663 40.3329 24.0543 40.3329 23.8333C40.3329 23.6123 40.2451 23.4004 40.0888 23.2441C39.9325 23.0878 39.7206 23 39.4995 23H27.8329C27.6119 23 27.3999 23.0878 27.2436 23.2441C27.0873 23.4004 26.9995 23.6123 26.9995 23.8333C26.9995 24.0543 27.0873 24.2663 27.2436 24.4226C27.3999 24.5789 27.6119 24.6667 27.8329 24.6667ZM25.0912 27.4083C24.974 27.2927 24.8252 27.2144 24.6636 27.1832C24.5019 27.1521 24.3346 27.1695 24.1829 27.2333C24.0819 27.2755 23.9889 27.3347 23.9079 27.4083C23.832 27.4876 23.7725 27.581 23.7329 27.6833C23.6888 27.7831 23.666 27.8909 23.666 28C23.666 28.1091 23.6888 28.2169 23.7329 28.3167C23.7751 28.4177 23.8343 28.5107 23.9079 28.5917C23.9889 28.6653 24.0819 28.7245 24.1829 28.7667C24.2826 28.8108 24.3905 28.8335 24.4995 28.8335C24.6086 28.8335 24.7165 28.8108 24.8162 28.7667C24.9172 28.7245 25.0102 28.6653 25.0912 28.5917C25.1648 28.5107 25.224 28.4177 25.2662 28.3167C25.3103 28.2169 25.3331 28.1091 25.3331 28C25.3331 27.8909 25.3103 27.7831 25.2662 27.6833C25.2265 27.581 25.1671 27.4876 25.0912 27.4083ZM39.4995 27.1667H27.8329C27.6119 27.1667 27.3999 27.2545 27.2436 27.4107C27.0873 27.567 26.9995 27.779 26.9995 28C26.9995 28.221 27.0873 28.433 27.2436 28.5893C27.3999 28.7455 27.6119 28.8333 27.8329 28.8333H39.4995C39.7206 28.8333 39.9325 28.7455 40.0888 28.5893C40.2451 28.433 40.3329 28.221 40.3329 28C40.3329 27.779 40.2451 27.567 40.0888 27.4107C39.9325 27.2545 39.7206 27.1667 39.4995 27.1667ZM25.0912 23.2417C25.012 23.1658 24.9185 23.1063 24.8162 23.0667C24.6645 23.0029 24.4972 22.9854 24.3355 23.0166C24.1739 23.0477 24.0251 23.126 23.9079 23.2417C23.8343 23.3227 23.7751 23.4157 23.7329 23.5167C23.6888 23.6164 23.666 23.7243 23.666 23.8333C23.666 23.9424 23.6888 24.0502 23.7329 24.15C23.7751 24.251 23.8343 24.344 23.9079 24.425C23.9889 24.4986 24.0819 24.5578 24.1829 24.6C24.3346 24.6638 24.5019 24.6813 24.6636 24.6501C24.8252 24.619 24.974 24.5406 25.0912 24.425C25.1648 24.344 25.224 24.251 25.2662 24.15C25.3103 24.0502 25.3331 23.9424 25.3331 23.8333C25.3331 23.7243 25.3103 23.6164 25.2662 23.5167C25.224 23.4157 25.1648 23.3227 25.0912 23.2417ZM39.4995 31.3333H27.8329C27.6119 31.3333 27.3999 31.4211 27.2436 31.5774C27.0873 31.7337 26.9995 31.9457 26.9995 32.1667C26.9995 32.3877 27.0873 32.5996 27.2436 32.7559C27.3999 32.9122 27.6119 33 27.8329 33H39.4995C39.7206 33 39.9325 32.9122 40.0888 32.7559C40.2451 32.5996 40.3329 32.3877 40.3329 32.1667C40.3329 31.9457 40.2451 31.7337 40.0888 31.5774C39.9325 31.4211 39.7206 31.3333 39.4995 31.3333Z" fill="#FF9900"/>
</g>
</g>
<defs>
<filter id="filter0_dd_4057_4668" x="0" y="0" width="64" height="64" filterUnits="userSpaceOnUse" color-interpolation-filters="sRGB">
<feFlood flood-opacity="0" result="BackgroundImageFix"/>
<feColorMatrix in="SourceAlpha" type="matrix" values="0 0 0 0 0 0 0 0 0 0 0 0 0 0 0 0 0 0 127 0" result="hardAlpha"/>
<feMorphology radius="0.5" operator="dilate" in="SourceAlpha" result="effect1_dropShadow_4057_4668"/>
<feOffset/>
<feGaussianBlur stdDeviation="0.25"/>
<feComposite in2="hardAlpha" operator="out"/>
<feColorMatrix type="matrix" values="0 0 0 0 0 0 0 0 0 0 0 0 0 0 0 0 0 0 0.06 0"/>
<feBlend mode="normal" in2="BackgroundImageFix" result="effect1_dropShadow_4057_4668"/>
<feColorMatrix in="SourceAlpha" type="matrix" values="0 0 0 0 0 0 0 0 0 0 0 0 0 0 0 0 0 0 127 0" result="hardAlpha"/>
<feOffset dy="4"/>
<feGaussianBlur stdDeviation="5"/>
<feComposite in2="hardAlpha" operator="out"/>
<feColorMatrix type="matrix" values="0 0 0 0 0 0 0 0 0 0 0 0 0 0 0 0 0 0 0.05 0"/>
<feBlend mode="normal" in2="effect1_dropShadow_4057_4668" result="effect2_dropShadow_4057_4668"/>
<feBlend mode="normal" in="SourceGraphic" in2="effect2_dropShadow_4057_4668" result="shape"/>
</filter>
<filter id="filter1_d_4057_4668" x="16" y="14" width="32" height="32" filterUnits="userSpaceOnUse" color-interpolation-filters="sRGB">
<feFlood flood-opacity="0" result="BackgroundImageFix"/>
<feColorMatrix in="SourceAlpha" type="matrix" values="0 0 0 0 0 0 0 0 0 0 0 0 0 0 0 0 0 0 127 0" result="hardAlpha"/>
<feOffset dy="2"/>
<feGaussianBlur stdDeviation="3"/>
<feComposite in2="hardAlpha" operator="out"/>
<feColorMatrix type="matrix" values="0 0 0 0 1 0 0 0 0 0.6 0 0 0 0 0 0 0 0 0.1 0"/>
<feBlend mode="normal" in2="BackgroundImageFix" result="effect1_dropShadow_4057_4668"/>
<feBlend mode="normal" in="SourceGraphic" in2="effect1_dropShadow_4057_4668" result="shape"/>
</filter>
</defs>
</svg>
