<svg width="24" height="24" viewBox="0 0 24 24" fill="none" xmlns="http://www.w3.org/2000/svg">
<path d="M14.5 12.001C14.5 12.664 14.2366 13.2999 13.7678 13.7687C13.2989 14.2376 12.663 14.501 12 14.501C11.337 14.501 10.7011 14.2376 10.2322 13.7687C9.76339 13.2999 9.5 12.664 9.5 12.001C9.5 11.3379 9.76339 10.7021 10.2322 10.2332C10.7011 9.76437 11.337 9.50098 12 9.50098C12.663 9.50098 13.2989 9.76437 13.7678 10.2332C14.2366 10.7021 14.5 11.3379 14.5 12.001Z" stroke="black" stroke-width="1.5" stroke-linecap="round" stroke-linejoin="round"/>
<path d="M16 5.001C18.48 5.001 20.19 5.385 21.133 5.677C21.676 5.845 22 6.36 22 6.928V16.683C22 17.798 20.772 18.637 19.676 18.43C18.736 18.253 17.511 18.11 16 18.11C11.25 18.11 10.11 19.916 3.14501 18.38C2.81881 18.3061 2.52757 18.1231 2.3194 17.8613C2.11123 17.5995 1.99856 17.2745 2.00001 16.94V6.921C2.00001 5.945 2.92001 5.234 3.87801 5.424C10.197 6.678 11.421 5.001 16 5.001Z" stroke="black" stroke-width="1.5" stroke-linecap="round" stroke-linejoin="round"/>
<path d="M2 9.00098C3.951 9.00098 5.705 7.40598 5.929 5.75498M18.5 5.50098C18.5 7.54098 20.265 9.46998 22 9.46998M22 15.001C20.1 15.001 18.26 16.311 18.102 18.099M6 18.497C6 17.4361 5.57857 16.4187 4.82843 15.6685C4.07828 14.9184 3.06087 14.497 2 14.497" stroke="black" stroke-width="1.5" stroke-linecap="round" stroke-linejoin="round"/>
</svg>
