<svg width="24" height="24" viewBox="0 0 24 24" fill="none" xmlns="http://www.w3.org/2000/svg">
<path d="M6.92 6.956L5.45 5.473M14.759 6.956L16.229 5.473M5.449 16.353L6.919 14.869M10.839 4.979V3M4.959 10.913H3M16.875 16.836L20.689 15.33C20.781 15.2932 20.8599 15.2296 20.9155 15.1475C20.971 15.0655 21.0007 14.9686 21.0007 14.8695C21.0007 14.7704 20.971 14.6735 20.9155 14.5915C20.8599 14.5094 20.781 14.4458 20.689 14.409L11.524 10.794C11.4348 10.7595 11.3374 10.7517 11.2439 10.7717C11.1503 10.7916 11.0646 10.8384 10.9972 10.9063C10.9298 10.9742 10.8837 11.0603 10.8645 11.154C10.8452 11.2478 10.8538 11.345 10.889 11.434L14.471 20.685C14.633 21.105 15.221 21.105 15.383 20.685L16.875 16.836Z" stroke="black" stroke-width="1.5" stroke-linecap="round" stroke-linejoin="round"/>
</svg>
