<svg width="24" height="24" viewBox="0 0 24 24" fill="none" xmlns="http://www.w3.org/2000/svg">
<path d="M7.5 11C6.53333 11 5.70833 10.6583 5.025 9.975C4.34167 9.29167 4 8.46667 4 7.5C4 6.53333 4.34167 5.70833 5.025 5.025C5.70833 4.34167 6.53333 4 7.5 4C8.46667 4 9.29167 4.34167 9.975 5.025C10.6583 5.70833 11 6.53333 11 7.5C11 8.46667 10.6583 9.29167 9.975 9.975C9.29167 10.6583 8.46667 11 7.5 11ZM7.5 9C7.91667 9 8.271 8.85433 8.563 8.563C8.855 8.27167 9.00067 7.91733 9 7.5C8.99933 7.08267 8.85367 6.72867 8.563 6.438C8.27233 6.14733 7.918 6.00133 7.5 6C7.082 5.99867 6.728 6.14467 6.438 6.438C6.148 6.73133 6.002 7.08533 6 7.5C5.998 7.91467 6.144 8.269 6.438 8.563C6.732 8.857 7.086 9.00267 7.5 9ZM16.5 20C15.5333 20 14.7083 19.6583 14.025 18.975C13.3417 18.2917 13 17.4667 13 16.5C13 15.5333 13.3417 14.7083 14.025 14.025C14.7083 13.3417 15.5333 13 16.5 13C17.4667 13 18.2917 13.3417 18.975 14.025C19.6583 14.7083 20 15.5333 20 16.5C20 17.4667 19.6583 18.2917 18.975 18.975C18.2917 19.6583 17.4667 20 16.5 20ZM16.5 18C16.9167 18 17.271 17.8543 17.563 17.563C17.855 17.2717 18.0007 16.9173 18 16.5C17.9993 16.0827 17.8537 15.7287 17.563 15.438C17.2723 15.1473 16.918 15.0013 16.5 15C16.082 14.9987 15.728 15.1447 15.438 15.438C15.148 15.7313 15.002 16.0853 15 16.5C14.998 16.9147 15.144 17.269 15.438 17.563C15.732 17.857 16.086 18.0027 16.5 18ZM4.7 19.3C4.51667 19.1167 4.425 18.8833 4.425 18.6C4.425 18.3167 4.51667 18.0833 4.7 17.9L17.9 4.7C18.0833 4.51667 18.3167 4.425 18.6 4.425C18.8833 4.425 19.1167 4.51667 19.3 4.7C19.4833 4.88333 19.575 5.11667 19.575 5.4C19.575 5.68333 19.4833 5.91667 19.3 6.1L6.1 19.3C5.91667 19.4833 5.68333 19.575 5.4 19.575C5.11667 19.575 4.88333 19.4833 4.7 19.3Z" fill="black"/>
</svg>
