<svg width="140" height="140" viewBox="0 0 140 140" fill="none" xmlns="http://www.w3.org/2000/svg">
<mask id="mask0_3240_3197" style="mask-type:alpha" maskUnits="userSpaceOnUse" x="0" y="0" width="140" height="140">
<circle cx="70" cy="70" r="70" fill="#D9D9D9"/>
</mask>
<g mask="url(#mask0_3240_3197)">
<circle cx="70" cy="70" r="70" fill="#F9FAFB"/>
<g filter="url(#filter0_d_3240_3197)">
<rect x="27" y="22.4286" width="86" height="117.143" rx="10" fill="white" shape-rendering="crispEdges"/>
<rect x="27.2" y="22.6286" width="85.6" height="116.743" rx="9.8" stroke="#D9DDE5" stroke-width="0.4" shape-rendering="crispEdges"/>
<g filter="url(#filter1_d_3240_3197)">
<rect x="54.4287" y="32.4286" width="31.1429" height="31.1429" rx="15.5714" fill="white"/>
<rect x="54.5787" y="32.5786" width="30.8429" height="30.8429" rx="15.4214" stroke="#F9FAFB" stroke-width="0.3"/>
<path fill-rule="evenodd" clip-rule="evenodd" d="M68.1254 49.4583C69.3752 49.4586 70.6251 49.4586 71.875 49.4583C72.2989 49.4582 72.5878 49.4582 72.84 49.5026C74.0475 49.7156 74.993 50.661 75.2059 51.8685C75.2504 52.1208 75.2503 52.4096 75.2502 52.8335C75.2502 52.9259 75.253 53.0189 75.2369 53.1103C75.173 53.4725 74.8894 53.7562 74.5271 53.82C74.4477 53.8341 74.364 53.8336 74.3224 53.8334C71.4412 53.818 68.5592 53.818 65.678 53.8334C65.6364 53.8336 65.5527 53.8341 65.4732 53.82C65.111 53.7562 64.8274 53.4725 64.7635 53.1103C64.7474 53.0189 64.7502 52.9259 64.7502 52.8335C64.7501 52.4096 64.75 52.1208 64.7945 51.8685C65.0074 50.661 65.9528 49.7156 67.1604 49.5026C67.4126 49.4582 67.7015 49.4582 68.1254 49.4583Z" fill="#C3723C"/>
<path fill-rule="evenodd" clip-rule="evenodd" d="M66.7919 45.375C66.7919 43.6031 68.2283 42.1667 70.0002 42.1667C71.7721 42.1667 73.2085 43.6031 73.2085 45.375C73.2085 47.1469 71.7721 48.5833 70.0002 48.5833C68.2283 48.5833 66.7919 47.1469 66.7919 45.375Z" fill="#C3723C"/>
</g>
<g filter="url(#filter2_d_3240_3197)">
<rect x="35" y="69.5714" width="70" height="15" rx="7.5" fill="white"/>
<rect x="35.1786" y="69.75" width="69.6429" height="14.6429" rx="7.32143" stroke="#ECEEF2" stroke-width="0.357143"/>
<rect x="43" y="74.5714" width="60" height="5" rx="2.5" fill="url(#paint0_linear_3240_3197)" fill-opacity="0.3"/>
</g>
<g filter="url(#filter3_d_3240_3197)">
<rect x="35" y="88.8571" width="70" height="15" rx="7.5" fill="white"/>
<rect x="35.1786" y="89.0357" width="69.6429" height="14.6429" rx="7.32143" stroke="#ECEEF2" stroke-width="0.357143"/>
<rect x="43" y="94.3571" width="4" height="4" rx="2" fill="#B0BAC9"/>
<rect x="49" y="94.3571" width="4" height="4" rx="2" fill="#B0BAC9"/>
<rect x="55" y="94.3571" width="4" height="4" rx="2" fill="#B0BAC9" fill-opacity="0.3"/>
<rect x="61" y="94.3571" width="4" height="4" rx="2" fill="#B0BAC9" fill-opacity="0.3"/>
<rect x="67" y="94.3571" width="4" height="4" rx="2" fill="#B0BAC9" fill-opacity="0.3"/>
</g>
<rect x="35" y="113.857" width="70" height="15.7143" rx="7.85714" fill="#D9DDE5"/>
<rect x="56.7861" y="118.857" width="26.4286" height="5.71429" rx="2.85714" fill="white"/>
</g>
<g filter="url(#filter4_d_3240_3197)">
<rect x="23" y="30.5714" width="95" height="120.857" rx="10" fill="white" shape-rendering="crispEdges"/>
<rect x="23.2" y="30.7714" width="94.6" height="120.457" rx="9.8" stroke="#D9DDE5" stroke-width="0.4" shape-rendering="crispEdges"/>
<g filter="url(#filter5_d_3240_3197)">
<rect x="54.9287" y="40.5714" width="31.1429" height="31.1429" rx="15.5714" fill="white"/>
<rect x="55.0787" y="40.7214" width="30.8429" height="30.8429" rx="15.4214" stroke="#F9FAFB" stroke-width="0.3"/>
<path d="M64.7046 53.9329C64.5633 53.8332 64.4927 53.7833 64.4325 53.7712C64.2998 53.7443 64.1624 53.8155 64.1078 53.9394C64.083 53.9956 64.083 54.0811 64.083 54.2521V58.0336C64.083 58.5032 64.083 58.8907 64.1088 59.2064C64.1226 59.3758 64.3201 59.444 64.446 59.3299L67.4759 56.5851C67.6236 56.4514 67.6974 56.3845 67.7209 56.3077C67.7415 56.2404 67.7371 56.1679 67.7085 56.1036C67.6758 56.0303 67.5945 55.9728 67.4318 55.858L64.7046 53.9329Z" fill="#C3723C"/>
<path d="M65.0695 60.3392C64.9507 60.4468 64.8913 60.5006 64.8678 60.5775C64.8496 60.6372 64.8551 60.725 64.8805 60.7819C64.9134 60.8553 64.9675 60.8934 65.0759 60.9694C65.1651 61.032 65.259 61.0886 65.357 61.1385C65.6401 61.2828 65.9416 61.3403 66.2694 61.3671C66.5851 61.3929 66.9727 61.3929 67.4422 61.3929H73.5571C74.0267 61.3929 74.4142 61.3929 74.7299 61.3671C75.0578 61.3403 75.3592 61.2828 75.6423 61.1385C75.7403 61.0886 75.8342 61.032 75.9235 60.9694C76.0318 60.8934 76.086 60.8553 76.1188 60.7819C76.1443 60.725 76.1498 60.6372 76.1315 60.5775C76.108 60.5006 76.0486 60.4468 75.9298 60.3392L72.36 57.1054C72.2918 57.0436 72.2577 57.0127 72.2208 56.9946C72.1508 56.9603 72.0701 56.9554 71.9965 56.981C71.9577 56.9945 71.9201 57.0211 71.8449 57.0741C71.5257 57.3002 71.2454 57.4987 70.9257 57.5789C70.646 57.6491 70.3534 57.6491 70.0738 57.5789C69.7541 57.4987 69.4738 57.3002 69.1545 57.0741C69.0793 57.021 69.0417 56.9945 69.0028 56.9809C68.9293 56.9554 68.8486 56.9603 68.7787 56.9945C68.7417 57.0126 68.7076 57.0436 68.6393 57.1054L65.0695 60.3392Z" fill="#C3723C"/>
<path d="M76.5534 59.3299C76.6793 59.444 76.8767 59.3758 76.8906 59.2064C76.9164 58.8907 76.9163 58.5032 76.9163 58.0336V54.2521C76.9163 54.0812 76.9163 53.9957 76.8916 53.9395C76.837 53.8156 76.6996 53.7444 76.5668 53.7712C76.5067 53.7834 76.4361 53.8333 76.2949 53.9329L73.5676 55.858C73.4049 55.9729 73.3236 56.0303 73.2909 56.1037C73.2623 56.168 73.2579 56.2405 73.2785 56.3078C73.302 56.3845 73.3758 56.4514 73.5234 56.5851L76.5534 59.3299Z" fill="#C3723C"/>
<path d="M76.4961 51.8888C76.5598 51.9797 76.5917 52.0252 76.6015 52.0944C76.6091 52.1482 76.596 52.2234 76.5706 52.2715C76.5379 52.3333 76.4828 52.3722 76.3725 52.4501L71.2398 56.0732C70.8124 56.3749 70.7217 56.4272 70.6417 56.4473C70.5485 56.4707 70.451 56.4707 70.3577 56.4473C70.2777 56.4272 70.1871 56.3749 69.7596 56.0732L64.6269 52.45C64.5166 52.3722 64.4614 52.3332 64.4288 52.2715C64.4034 52.2233 64.3903 52.1482 64.3979 52.0943C64.4077 52.0251 64.4396 51.9797 64.5033 51.8887C64.7216 51.577 65.0187 51.3196 65.357 51.1472C65.6401 51.0029 65.9416 50.9454 66.2694 50.9186C66.5851 50.8929 66.9727 50.8929 67.4422 50.8929H73.5571C74.0267 50.8929 74.4142 50.8929 74.7299 50.9186C75.0578 50.9454 75.3592 51.0029 75.6423 51.1472C75.9807 51.3196 76.2778 51.577 76.4961 51.8888Z" fill="#C3723C"/>
</g>
<rect x="40.5" y="79.7143" width="60" height="5" rx="2.5" fill="#B0BAC9" fill-opacity="0.3"/>
<rect x="57" y="86.7143" width="27" height="5" rx="2.5" fill="#B0BAC9" fill-opacity="0.2"/>
<g filter="url(#filter6_d_3240_3197)">
<rect x="31" y="99.7143" width="79" height="16" rx="4" fill="white"/>
<rect x="31.3" y="100.014" width="78.4" height="15.4" rx="3.7" stroke="#ECEEF2" stroke-width="0.6"/>
<path d="M58.7525 110.784C58.3829 110.784 58.0548 110.722 57.7681 110.597C57.4831 110.473 57.2594 110.303 57.097 110.088C56.9362 109.871 56.8567 109.625 56.8583 109.35C56.8567 109.136 56.9031 108.939 56.9975 108.76C57.092 108.581 57.2196 108.432 57.3803 108.313C57.5428 108.192 57.7234 108.115 57.9222 108.082V108.047C57.6604 107.989 57.4483 107.856 57.2859 107.647C57.1251 107.436 57.0456 107.194 57.0472 106.918C57.0456 106.657 57.1185 106.423 57.266 106.217C57.4135 106.012 57.6157 105.85 57.8725 105.733C58.1294 105.613 58.4227 105.554 58.7525 105.554C59.079 105.554 59.3698 105.613 59.625 105.733C59.8819 105.85 60.0841 106.012 60.2316 106.217C60.3807 106.423 60.4553 106.657 60.4553 106.918C60.4553 107.194 60.3732 107.436 60.2092 107.647C60.0468 107.856 59.8371 107.989 59.5803 108.047V108.082C59.7791 108.115 59.9581 108.192 60.1172 108.313C60.278 108.432 60.4056 108.581 60.5 108.76C60.5961 108.939 60.6442 109.136 60.6442 109.35C60.6442 109.625 60.563 109.871 60.4006 110.088C60.2382 110.303 60.0145 110.473 59.7294 110.597C59.446 110.722 59.1204 110.784 58.7525 110.784ZM58.7525 110.073C58.9431 110.073 59.1088 110.041 59.2497 109.976C59.3905 109.91 59.4999 109.817 59.5778 109.698C59.6557 109.578 59.6954 109.441 59.6971 109.285C59.6954 109.123 59.6532 108.979 59.5703 108.855C59.4891 108.729 59.3773 108.63 59.2347 108.559C59.0939 108.488 58.9331 108.452 58.7525 108.452C58.5702 108.452 58.4078 108.488 58.2653 108.559C58.1228 108.63 58.0101 108.729 57.9272 108.855C57.846 108.979 57.8062 109.123 57.8079 109.285C57.8062 109.441 57.8444 109.578 57.9222 109.698C58.0001 109.815 58.1095 109.907 58.2504 109.974C58.3929 110.04 58.5603 110.073 58.7525 110.073ZM58.7525 107.754C58.9083 107.754 59.0458 107.722 59.1651 107.659C59.2861 107.596 59.3814 107.508 59.451 107.396C59.5206 107.283 59.5562 107.153 59.5579 107.005C59.5562 106.86 59.5214 106.732 59.4535 106.623C59.3856 106.512 59.2911 106.426 59.1701 106.367C59.0491 106.305 58.9099 106.275 58.7525 106.275C58.5918 106.275 58.4501 106.305 58.3274 106.367C58.2065 106.426 58.112 106.512 58.0441 106.623C57.9778 106.732 57.9454 106.86 57.9471 107.005C57.9454 107.153 57.9786 107.283 58.0465 107.396C58.1161 107.507 58.2114 107.595 58.3324 107.659C58.455 107.722 58.5951 107.754 58.7525 107.754ZM63.5088 105.554C63.7524 105.555 63.9894 105.599 64.2197 105.683C64.4517 105.766 64.6606 105.902 64.8462 106.091C65.0318 106.278 65.1793 106.529 65.2886 106.844C65.398 107.159 65.4527 107.548 65.4527 108.012C65.4543 108.45 65.4079 108.841 65.3135 109.186C65.2207 109.529 65.0873 109.819 64.9133 110.056C64.7393 110.293 64.5296 110.473 64.2844 110.597C64.0391 110.722 63.7632 110.784 63.4566 110.784C63.1351 110.784 62.8501 110.721 62.6015 110.595C62.3546 110.469 62.1549 110.297 62.0024 110.078C61.8499 109.859 61.7563 109.609 61.7215 109.327H62.6288C62.6752 109.529 62.7697 109.69 62.9122 109.809C63.0564 109.927 63.2378 109.986 63.4566 109.986C63.8096 109.986 64.0814 109.833 64.2719 109.526C64.4625 109.22 64.5578 108.794 64.5578 108.248H64.523C64.4418 108.394 64.3366 108.52 64.2073 108.626C64.078 108.731 63.9314 108.811 63.7673 108.867C63.6049 108.924 63.4326 108.952 63.2503 108.952C62.952 108.952 62.6835 108.881 62.4449 108.738C62.2079 108.596 62.0198 108.4 61.8806 108.151C61.7431 107.903 61.6735 107.619 61.6718 107.299C61.6718 106.967 61.748 106.67 61.9005 106.406C62.0546 106.141 62.2692 105.932 62.5443 105.78C62.8194 105.626 63.1409 105.55 63.5088 105.554ZM63.5113 106.3C63.3323 106.3 63.1707 106.343 63.0266 106.431C62.884 106.517 62.7713 106.635 62.6885 106.784C62.6073 106.932 62.5667 107.097 62.5667 107.279C62.5683 107.46 62.6089 107.624 62.6885 107.771C62.7697 107.919 62.8799 108.035 63.0191 108.122C63.16 108.208 63.3207 108.251 63.5013 108.251C63.6356 108.251 63.7607 108.225 63.8767 108.174C63.9927 108.122 64.0938 108.051 64.18 107.96C64.2678 107.867 64.3357 107.762 64.3838 107.644C64.4335 107.527 64.4575 107.402 64.4559 107.271C64.4559 107.097 64.4145 106.937 64.3316 106.789C64.2504 106.642 64.1385 106.523 63.996 106.434C63.8552 106.344 63.6936 106.3 63.5113 106.3ZM66.6102 110.714L68.7753 106.429V106.394H66.2622V105.623H69.7299V106.411L67.5672 110.714H66.6102ZM70.7394 109.33H71.6716C71.6832 109.472 71.7313 109.595 71.8158 109.698C71.9003 109.799 72.0113 109.877 72.1489 109.931C72.2864 109.984 72.4397 110.011 72.6088 110.011C72.7877 110.011 72.9476 109.98 73.0885 109.919C73.2294 109.856 73.3396 109.766 73.4191 109.65C73.5003 109.533 73.5409 109.39 73.5409 109.223C73.5409 109.069 73.502 108.929 73.4241 108.803C73.3479 108.675 73.231 108.574 73.0736 108.499C72.9162 108.423 72.7148 108.385 72.4695 108.385H71.9649V107.721L73.1432 106.429V106.394H70.9905V105.623H74.3065V106.29L72.9394 107.761V107.801C73.1913 107.821 73.4133 107.874 73.6056 107.96C73.7994 108.046 73.9619 108.156 74.0928 108.291C74.2237 108.425 74.3223 108.576 74.3886 108.743C74.4549 108.91 74.488 109.086 74.488 109.27C74.488 109.568 74.406 109.831 74.2419 110.058C74.0795 110.285 73.8558 110.463 73.5708 110.592C73.2874 110.72 72.9642 110.784 72.6013 110.784C72.2533 110.784 71.9409 110.724 71.6641 110.605C71.3891 110.486 71.1695 110.317 71.0054 110.1C70.8413 109.882 70.7527 109.625 70.7394 109.33ZM77.4887 110.784C77.2451 110.782 77.0073 110.74 76.7753 110.657C76.5433 110.573 76.3345 110.436 76.1489 110.247C75.9633 110.056 75.8158 109.804 75.7064 109.489C75.597 109.172 75.5432 108.78 75.5448 108.313C75.5448 107.877 75.5912 107.489 75.684 107.147C75.7768 106.806 75.9102 106.517 76.0842 106.282C76.2582 106.045 76.4679 105.865 76.7131 105.74C76.9601 105.616 77.236 105.554 77.5409 105.554C77.8608 105.554 78.1441 105.617 78.3911 105.743C78.6396 105.869 78.8402 106.041 78.9926 106.26C79.1451 106.477 79.2395 106.722 79.276 106.996H78.3687C78.3223 106.8 78.227 106.644 78.0828 106.528C77.9403 106.411 77.7597 106.352 77.5409 106.352C77.1879 106.352 76.9162 106.505 76.7256 106.812C76.5367 107.118 76.4414 107.539 76.4397 108.074H76.4745C76.5557 107.929 76.6609 107.803 76.7902 107.699C76.9195 107.595 77.0653 107.514 77.2277 107.458C77.3918 107.4 77.5649 107.371 77.7472 107.371C78.0455 107.371 78.3132 107.442 78.5502 107.585C78.7888 107.727 78.9777 107.924 79.1169 108.174C79.2561 108.422 79.3249 108.707 79.3232 109.029C79.3249 109.364 79.2487 109.664 79.0945 109.931C78.9404 110.196 78.7258 110.405 78.4507 110.558C78.1756 110.71 77.855 110.786 77.4887 110.784ZM77.4837 110.038C77.6644 110.038 77.826 109.994 77.9685 109.906C78.111 109.819 78.2237 109.7 78.3065 109.551C78.3894 109.402 78.43 109.234 78.4283 109.049C78.43 108.867 78.3902 108.702 78.309 108.554C78.2295 108.407 78.1193 108.29 77.9784 108.204C77.8376 108.117 77.6768 108.074 77.4962 108.074C77.3619 108.074 77.2368 108.1 77.1208 108.151C77.0048 108.203 76.9037 108.274 76.8176 108.365C76.7314 108.455 76.6634 108.559 76.6137 108.678C76.5657 108.796 76.5408 108.922 76.5391 109.056C76.5408 109.234 76.5822 109.397 76.6634 109.546C76.7446 109.695 76.8565 109.814 76.999 109.904C77.1415 109.993 77.3031 110.038 77.4837 110.038ZM82.2531 110.784C81.8835 110.784 81.5554 110.722 81.2687 110.597C80.9837 110.473 80.76 110.303 80.5976 110.088C80.4368 109.871 80.3573 109.625 80.3589 109.35C80.3573 109.136 80.4037 108.939 80.4981 108.76C80.5926 108.581 80.7202 108.432 80.8809 108.313C81.0433 108.192 81.224 108.115 81.4228 108.082V108.047C81.161 107.989 80.9489 107.856 80.7865 107.647C80.6257 107.436 80.5462 107.194 80.5478 106.918C80.5462 106.657 80.6191 106.423 80.7666 106.217C80.9141 106.012 81.1163 105.85 81.3731 105.733C81.63 105.613 81.9233 105.554 82.2531 105.554C82.5796 105.554 82.8704 105.613 83.1256 105.733C83.3825 105.85 83.5846 106.012 83.7321 106.217C83.8813 106.423 83.9559 106.657 83.9559 106.918C83.9559 107.194 83.8738 107.436 83.7098 107.647C83.5474 107.856 83.3377 107.989 83.0809 108.047V108.082C83.2797 108.115 83.4587 108.192 83.6178 108.313C83.7785 108.432 83.9061 108.581 84.0006 108.76C84.0967 108.939 84.1448 109.136 84.1448 109.35C84.1448 109.625 84.0636 109.871 83.9012 110.088C83.7388 110.303 83.515 110.473 83.23 110.597C82.9466 110.722 82.621 110.784 82.2531 110.784ZM82.2531 110.073C82.4437 110.073 82.6094 110.041 82.7502 109.976C82.8911 109.91 83.0005 109.817 83.0784 109.698C83.1563 109.578 83.196 109.441 83.1977 109.285C83.196 109.123 83.1538 108.979 83.0709 108.855C82.9897 108.729 82.8779 108.63 82.7353 108.559C82.5945 108.488 82.4337 108.452 82.2531 108.452C82.0708 108.452 81.9084 108.488 81.7659 108.559C81.6234 108.63 81.5107 108.729 81.4278 108.855C81.3466 108.979 81.3068 109.123 81.3085 109.285C81.3068 109.441 81.3449 109.578 81.4228 109.698C81.5007 109.815 81.6101 109.907 81.751 109.974C81.8935 110.04 82.0609 110.073 82.2531 110.073ZM82.2531 107.754C82.4089 107.754 82.5464 107.722 82.6657 107.659C82.7867 107.596 82.882 107.508 82.9516 107.396C83.0212 107.283 83.0568 107.153 83.0585 107.005C83.0568 106.86 83.022 106.732 82.9541 106.623C82.8861 106.512 82.7917 106.426 82.6707 106.367C82.5497 106.305 82.4105 106.275 82.2531 106.275C82.0923 106.275 81.9507 106.305 81.828 106.367C81.707 106.426 81.6126 106.512 81.5446 106.623C81.4784 106.732 81.446 106.86 81.4477 107.005C81.446 107.153 81.4792 107.283 81.5471 107.396C81.6167 107.507 81.712 107.595 81.833 107.659C81.9556 107.722 82.0957 107.754 82.2531 107.754Z" fill="#8E95A4"/>
<g clip-path="url(#clip0_3240_3197)">
<path d="M102 106.714V106.014C102 105.734 102 105.594 101.946 105.487C101.898 105.393 101.821 105.317 101.727 105.269C101.62 105.214 101.48 105.214 101.2 105.214H99.3C99.02 105.214 98.88 105.214 98.773 105.269C98.6789 105.317 98.6024 105.393 98.5545 105.487C98.5 105.594 98.5 105.734 98.5 106.014V107.914C98.5 108.194 98.5 108.334 98.5545 108.441C98.6024 108.535 98.6789 108.612 98.773 108.66C98.88 108.714 99.02 108.714 99.3 108.714H100M100.8 110.214H102.7C102.98 110.214 103.12 110.214 103.227 110.16C103.321 110.112 103.398 110.035 103.446 109.941C103.5 109.834 103.5 109.694 103.5 109.414V107.514C103.5 107.234 103.5 107.094 103.446 106.987C103.398 106.893 103.321 106.817 103.227 106.769C103.12 106.714 102.98 106.714 102.7 106.714H100.8C100.52 106.714 100.38 106.714 100.273 106.769C100.179 106.817 100.102 106.893 100.054 106.987C100 107.094 100 107.234 100 107.514V109.414C100 109.694 100 109.834 100.054 109.941C100.102 110.035 100.179 110.112 100.273 110.16C100.38 110.214 100.52 110.214 100.8 110.214Z" stroke="#8E95A4" stroke-opacity="0.5" stroke-width="0.6" stroke-linecap="round" stroke-linejoin="round"/>
</g>
</g>
<rect x="31" y="125.714" width="79" height="15.7143" rx="7.85714" fill="#D9DDE5"/>
<rect x="57.2861" y="130.714" width="26.4286" height="5.71429" rx="2.85714" fill="white"/>
</g>
</g>
<defs>
<filter id="filter0_d_3240_3197" x="-37" y="-33.5714" width="206" height="237.143" filterUnits="userSpaceOnUse" color-interpolation-filters="sRGB">
<feFlood flood-opacity="0" result="BackgroundImageFix"/>
<feColorMatrix in="SourceAlpha" type="matrix" values="0 0 0 0 0 0 0 0 0 0 0 0 0 0 0 0 0 0 127 0" result="hardAlpha"/>
<feOffset dx="-4" dy="4"/>
<feGaussianBlur stdDeviation="30"/>
<feComposite in2="hardAlpha" operator="out"/>
<feColorMatrix type="matrix" values="0 0 0 0 0.525 0 0 0 0 0.575 0 0 0 0 0.675 0 0 0 0.2 0"/>
<feBlend mode="normal" in2="BackgroundImageFix" result="effect1_dropShadow_3240_3197"/>
<feBlend mode="normal" in="SourceGraphic" in2="effect1_dropShadow_3240_3197" result="shape"/>
</filter>
<filter id="filter1_d_3240_3197" x="37.4287" y="21.4286" width="65.1426" height="65.1429" filterUnits="userSpaceOnUse" color-interpolation-filters="sRGB">
<feFlood flood-opacity="0" result="BackgroundImageFix"/>
<feColorMatrix in="SourceAlpha" type="matrix" values="0 0 0 0 0 0 0 0 0 0 0 0 0 0 0 0 0 0 127 0" result="hardAlpha"/>
<feMorphology radius="3" operator="erode" in="SourceAlpha" result="effect1_dropShadow_3240_3197"/>
<feOffset dy="6"/>
<feGaussianBlur stdDeviation="10"/>
<feComposite in2="hardAlpha" operator="out"/>
<feColorMatrix type="matrix" values="0 0 0 0 0.64 0 0 0 0 0.7 0 0 0 0 0.76 0 0 0 0.5 0"/>
<feBlend mode="normal" in2="BackgroundImageFix" result="effect1_dropShadow_3240_3197"/>
<feBlend mode="normal" in="SourceGraphic" in2="effect1_dropShadow_3240_3197" result="shape"/>
</filter>
<filter id="filter2_d_3240_3197" x="33.5714" y="68.8571" width="72.8571" height="17.8571" filterUnits="userSpaceOnUse" color-interpolation-filters="sRGB">
<feFlood flood-opacity="0" result="BackgroundImageFix"/>
<feColorMatrix in="SourceAlpha" type="matrix" values="0 0 0 0 0 0 0 0 0 0 0 0 0 0 0 0 0 0 127 0" result="hardAlpha"/>
<feOffset dy="0.714286"/>
<feGaussianBlur stdDeviation="0.714286"/>
<feComposite in2="hardAlpha" operator="out"/>
<feColorMatrix type="matrix" values="0 0 0 0 0 0 0 0 0 0 0 0 0 0 0 0 0 0 0.03 0"/>
<feBlend mode="normal" in2="BackgroundImageFix" result="effect1_dropShadow_3240_3197"/>
<feBlend mode="normal" in="SourceGraphic" in2="effect1_dropShadow_3240_3197" result="shape"/>
</filter>
<filter id="filter3_d_3240_3197" x="33.5714" y="88.1429" width="72.8571" height="17.8571" filterUnits="userSpaceOnUse" color-interpolation-filters="sRGB">
<feFlood flood-opacity="0" result="BackgroundImageFix"/>
<feColorMatrix in="SourceAlpha" type="matrix" values="0 0 0 0 0 0 0 0 0 0 0 0 0 0 0 0 0 0 127 0" result="hardAlpha"/>
<feOffset dy="0.714286"/>
<feGaussianBlur stdDeviation="0.714286"/>
<feComposite in2="hardAlpha" operator="out"/>
<feColorMatrix type="matrix" values="0 0 0 0 0 0 0 0 0 0 0 0 0 0 0 0 0 0 0.03 0"/>
<feBlend mode="normal" in2="BackgroundImageFix" result="effect1_dropShadow_3240_3197"/>
<feBlend mode="normal" in="SourceGraphic" in2="effect1_dropShadow_3240_3197" result="shape"/>
</filter>
<filter id="filter4_d_3240_3197" x="-41" y="-25.4286" width="215" height="240.857" filterUnits="userSpaceOnUse" color-interpolation-filters="sRGB">
<feFlood flood-opacity="0" result="BackgroundImageFix"/>
<feColorMatrix in="SourceAlpha" type="matrix" values="0 0 0 0 0 0 0 0 0 0 0 0 0 0 0 0 0 0 127 0" result="hardAlpha"/>
<feOffset dx="-4" dy="4"/>
<feGaussianBlur stdDeviation="30"/>
<feComposite in2="hardAlpha" operator="out"/>
<feColorMatrix type="matrix" values="0 0 0 0 0.525 0 0 0 0 0.575 0 0 0 0 0.675 0 0 0 0.7 0"/>
<feBlend mode="normal" in2="BackgroundImageFix" result="effect1_dropShadow_3240_3197"/>
<feBlend mode="normal" in="SourceGraphic" in2="effect1_dropShadow_3240_3197" result="shape"/>
</filter>
<filter id="filter5_d_3240_3197" x="37.9287" y="29.5714" width="65.1426" height="65.1429" filterUnits="userSpaceOnUse" color-interpolation-filters="sRGB">
<feFlood flood-opacity="0" result="BackgroundImageFix"/>
<feColorMatrix in="SourceAlpha" type="matrix" values="0 0 0 0 0 0 0 0 0 0 0 0 0 0 0 0 0 0 127 0" result="hardAlpha"/>
<feMorphology radius="3" operator="erode" in="SourceAlpha" result="effect1_dropShadow_3240_3197"/>
<feOffset dy="6"/>
<feGaussianBlur stdDeviation="10"/>
<feComposite in2="hardAlpha" operator="out"/>
<feColorMatrix type="matrix" values="0 0 0 0 0.64 0 0 0 0 0.7 0 0 0 0 0.76 0 0 0 0.5 0"/>
<feBlend mode="normal" in2="BackgroundImageFix" result="effect1_dropShadow_3240_3197"/>
<feBlend mode="normal" in="SourceGraphic" in2="effect1_dropShadow_3240_3197" result="shape"/>
</filter>
<filter id="filter6_d_3240_3197" x="29" y="98.7143" width="83" height="20" filterUnits="userSpaceOnUse" color-interpolation-filters="sRGB">
<feFlood flood-opacity="0" result="BackgroundImageFix"/>
<feColorMatrix in="SourceAlpha" type="matrix" values="0 0 0 0 0 0 0 0 0 0 0 0 0 0 0 0 0 0 127 0" result="hardAlpha"/>
<feOffset dy="1"/>
<feGaussianBlur stdDeviation="1"/>
<feComposite in2="hardAlpha" operator="out"/>
<feColorMatrix type="matrix" values="0 0 0 0 0 0 0 0 0 0 0 0 0 0 0 0 0 0 0.03 0"/>
<feBlend mode="normal" in2="BackgroundImageFix" result="effect1_dropShadow_3240_3197"/>
<feBlend mode="normal" in="SourceGraphic" in2="effect1_dropShadow_3240_3197" result="shape"/>
</filter>
<linearGradient id="paint0_linear_3240_3197" x1="43" y1="77.0714" x2="103" y2="77.0714" gradientUnits="userSpaceOnUse">
<stop stop-color="#B0BAC9"/>
<stop offset="1" stop-color="#B0BAC9" stop-opacity="0"/>
</linearGradient>
<clipPath id="clip0_3240_3197">
<rect width="6" height="6" fill="white" transform="translate(98 104.714)"/>
</clipPath>
</defs>
</svg>
