<svg width="140" height="140" viewBox="0 0 140 140" fill="none" xmlns="http://www.w3.org/2000/svg">
<mask id="mask0_3240_4330" style="mask-type:alpha" maskUnits="userSpaceOnUse" x="0" y="0" width="140" height="140">
<circle cx="70" cy="70" r="70" fill="#D9D9D9"/>
</mask>
<g mask="url(#mask0_3240_4330)">
<circle cx="70" cy="70" r="70" fill="#F9FAFB"/>
<g filter="url(#filter0_d_3240_4330)">
<rect x="27" y="22.5714" width="86" height="116.857" rx="10" fill="white" shape-rendering="crispEdges"/>
<rect x="27.2" y="22.7714" width="85.6" height="116.457" rx="9.8" stroke="#D9DDE5" stroke-width="0.4" shape-rendering="crispEdges"/>
<g filter="url(#filter1_d_3240_4330)">
<rect x="54.4287" y="30.5714" width="31.1429" height="31.1429" rx="15.5714" fill="white"/>
<rect x="54.5787" y="30.7214" width="30.8429" height="30.8429" rx="15.4214" stroke="#F9FAFB" stroke-width="0.3"/>
<path d="M64.2046 43.9329C64.0633 43.8332 63.9927 43.7833 63.9325 43.7712C63.7998 43.7443 63.6624 43.8155 63.6078 43.9394C63.583 43.9956 63.583 44.0811 63.583 44.2521V48.0336C63.583 48.5032 63.583 48.8907 63.6088 49.2064C63.6226 49.3758 63.8201 49.4439 63.946 49.3299L66.9759 46.5851C67.1236 46.4514 67.1974 46.3845 67.2209 46.3077C67.2415 46.2404 67.2371 46.1679 67.2085 46.1036C67.1758 46.0303 67.0945 45.9728 66.9318 45.858L64.2046 43.9329Z" fill="#C3723C"/>
<path d="M64.5695 50.3392C64.4507 50.4468 64.3913 50.5006 64.3678 50.5775C64.3496 50.6372 64.3551 50.725 64.3805 50.7819C64.4134 50.8553 64.4675 50.8934 64.5759 50.9694C64.6651 51.032 64.759 51.0886 64.857 51.1385C65.1401 51.2828 65.4416 51.3403 65.7694 51.3671C66.0851 51.3929 66.4727 51.3929 66.9422 51.3929H73.0571C73.5267 51.3929 73.9142 51.3929 74.2299 51.3671C74.5578 51.3403 74.8592 51.2828 75.1423 51.1385C75.2403 51.0886 75.3342 51.032 75.4235 50.9694C75.5318 50.8934 75.586 50.8553 75.6188 50.7819C75.6443 50.725 75.6498 50.6372 75.6315 50.5775C75.608 50.5006 75.5486 50.4468 75.4298 50.3392L71.86 47.1054C71.7918 47.0436 71.7577 47.0127 71.7208 46.9946C71.6508 46.9603 71.5701 46.9554 71.4965 46.981C71.4577 46.9945 71.4201 47.021 71.3449 47.0741C71.0257 47.3002 70.7454 47.4987 70.4257 47.5789C70.146 47.6491 69.8534 47.6491 69.5738 47.5789C69.2541 47.4987 68.9738 47.3002 68.6545 47.0741C68.5793 47.021 68.5417 46.9944 68.5028 46.9809C68.4293 46.9554 68.3486 46.9603 68.2787 46.9945C68.2417 47.0126 68.2076 47.0435 68.1393 47.1054L64.5695 50.3392Z" fill="#C3723C"/>
<path d="M76.0534 49.3299C76.1793 49.4439 76.3767 49.3758 76.3906 49.2064C76.4164 48.8907 76.4163 48.5032 76.4163 48.0336V44.2521C76.4163 44.0812 76.4163 43.9957 76.3916 43.9395C76.337 43.8156 76.1996 43.7444 76.0668 43.7712C76.0067 43.7834 75.9361 43.8332 75.7949 43.9329L73.0676 45.858C72.9049 45.9729 72.8236 46.0303 72.7909 46.1036C72.7623 46.168 72.7579 46.2405 72.7785 46.3078C72.802 46.3845 72.8758 46.4514 73.0234 46.5851L76.0534 49.3299Z" fill="#C3723C"/>
<path d="M75.9961 41.8888C76.0598 41.9797 76.0917 42.0252 76.1015 42.0943C76.1091 42.1482 76.096 42.2234 76.0706 42.2715C76.0379 42.3333 75.9828 42.3722 75.8725 42.4501L70.7398 46.0731C70.3124 46.3748 70.2217 46.4272 70.1417 46.4473C70.0485 46.4707 69.951 46.4707 69.8577 46.4473C69.7777 46.4272 69.6871 46.3748 69.2596 46.0731L64.1269 42.45C64.0166 42.3722 63.9614 42.3332 63.9288 42.2715C63.9034 42.2233 63.8903 42.1482 63.8979 42.0943C63.9077 42.0251 63.9396 41.9797 64.0033 41.8887C64.2216 41.577 64.5187 41.3196 64.857 41.1472C65.1401 41.0029 65.4416 40.9454 65.7694 40.9186C66.0851 40.8928 66.4727 40.8928 66.9422 40.8929H73.0571C73.5267 40.8928 73.9142 40.8928 74.2299 40.9186C74.5578 40.9454 74.8592 41.0029 75.1423 41.1472C75.4807 41.3196 75.7778 41.577 75.9961 41.8888Z" fill="#C3723C"/>
</g>
<rect x="40" y="69.7143" width="60" height="5" rx="2.5" fill="#B0BAC9" fill-opacity="0.3"/>
<rect x="56.5" y="76.7143" width="27" height="5" rx="2.5" fill="#B0BAC9" fill-opacity="0.2"/>
<g filter="url(#filter2_d_3240_4330)">
<rect x="35" y="89.7143" width="70" height="16" rx="4" fill="white"/>
<rect x="35.3" y="90.0143" width="69.4" height="15.4" rx="3.7" stroke="#ECEEF2" stroke-width="0.6"/>
<path d="M58.2525 100.784C57.8829 100.784 57.5548 100.722 57.2681 100.597C56.9831 100.473 56.7594 100.303 56.597 100.088C56.4362 99.8708 56.3567 99.6247 56.3583 99.3496C56.3567 99.1358 56.4031 98.9394 56.4975 98.7604C56.592 98.5815 56.7196 98.4323 56.8803 98.313C57.0428 98.192 57.2234 98.115 57.4222 98.0818V98.047C57.1604 97.989 56.9483 97.8556 56.7859 97.6468C56.6251 97.4363 56.5456 97.1936 56.5472 96.9185C56.5456 96.6566 56.6185 96.423 56.766 96.2175C56.9135 96.012 57.1157 95.8504 57.3725 95.7327C57.6294 95.6134 57.9227 95.5538 58.2525 95.5538C58.579 95.5538 58.8698 95.6134 59.125 95.7327C59.3819 95.8504 59.5841 96.012 59.7316 96.2175C59.8807 96.423 59.9553 96.6566 59.9553 96.9185C59.9553 97.1936 59.8732 97.4363 59.7092 97.6468C59.5468 97.8556 59.3371 97.989 59.0803 98.047V98.0818C59.2791 98.115 59.4581 98.192 59.6172 98.313C59.778 98.4323 59.9056 98.5815 60 98.7604C60.0961 98.9394 60.1442 99.1358 60.1442 99.3496C60.1442 99.6247 60.063 99.8708 59.9006 100.088C59.7382 100.303 59.5145 100.473 59.2294 100.597C58.946 100.722 58.6204 100.784 58.2525 100.784ZM58.2525 100.073C58.4431 100.073 58.6088 100.041 58.7497 99.976C58.8905 99.9097 58.9999 99.8169 59.0778 99.6976C59.1557 99.5783 59.1954 99.4407 59.1971 99.2849C59.1954 99.1225 59.1532 98.9792 59.0703 98.8549C58.9891 98.729 58.8773 98.6304 58.7347 98.5591C58.5939 98.4878 58.4331 98.4522 58.2525 98.4522C58.0702 98.4522 57.9078 98.4878 57.7653 98.5591C57.6228 98.6304 57.5101 98.729 57.4272 98.8549C57.346 98.9792 57.3062 99.1225 57.3079 99.2849C57.3062 99.4407 57.3444 99.5783 57.4222 99.6976C57.5001 99.8152 57.6095 99.9072 57.7504 99.9735C57.8929 100.04 58.0603 100.073 58.2525 100.073ZM58.2525 97.7537C58.4083 97.7537 58.5458 97.7222 58.6651 97.6592C58.7861 97.5963 58.8814 97.5084 58.951 97.3957C59.0206 97.2831 59.0562 97.153 59.0579 97.0055C59.0562 96.8596 59.0214 96.732 58.9535 96.6227C58.8856 96.5116 58.7911 96.4263 58.6701 96.3666C58.5491 96.3053 58.4099 96.2746 58.2525 96.2746C58.0918 96.2746 57.9501 96.3053 57.8274 96.3666C57.7065 96.4263 57.612 96.5116 57.5441 96.6227C57.4778 96.732 57.4454 96.8596 57.4471 97.0055C57.4454 97.153 57.4786 97.2831 57.5465 97.3957C57.6161 97.5068 57.7114 97.5946 57.8324 97.6592C57.955 97.7222 58.0951 97.7537 58.2525 97.7537ZM63.0088 95.5538C63.2524 95.5554 63.4894 95.5985 63.7197 95.683C63.9517 95.7659 64.1606 95.9018 64.3462 96.0907C64.5318 96.278 64.6793 96.529 64.7886 96.8439C64.898 97.1588 64.9527 97.5482 64.9527 98.0122C64.9543 98.4497 64.9079 98.8408 64.8135 99.1855C64.7207 99.5286 64.5873 99.8186 64.4133 100.056C64.2393 100.293 64.0296 100.473 63.7844 100.597C63.5391 100.722 63.2632 100.784 62.9566 100.784C62.6351 100.784 62.3501 100.721 62.1015 100.595C61.8546 100.469 61.6549 100.297 61.5024 100.078C61.3499 99.8592 61.2563 99.6089 61.2215 99.3272H62.1288C62.1752 99.5294 62.2697 99.6901 62.4122 99.8094C62.5564 99.9271 62.7378 99.9859 62.9566 99.9859C63.3096 99.9859 63.5814 99.8327 63.7719 99.5261C63.9625 99.2195 64.0578 98.7936 64.0578 98.2484H64.023C63.9418 98.3942 63.8366 98.5202 63.7073 98.6262C63.578 98.7306 63.4314 98.811 63.2673 98.8673C63.1049 98.9237 62.9326 98.9519 62.7503 98.9519C62.452 98.9519 62.1835 98.8806 61.9449 98.7381C61.7079 98.5956 61.5198 98.4 61.3806 98.1514C61.2431 97.9028 61.1735 97.6186 61.1718 97.2988C61.1718 96.9674 61.248 96.6699 61.4005 96.4064C61.5546 96.1412 61.7692 95.9324 62.0443 95.78C62.3194 95.6259 62.6409 95.5505 63.0088 95.5538ZM63.0113 96.2995C62.8323 96.2995 62.6707 96.3434 62.5266 96.4313C62.384 96.5174 62.2713 96.6351 62.1885 96.7842C62.1073 96.9317 62.0667 97.0966 62.0667 97.2789C62.0683 97.4595 62.1089 97.6236 62.1885 97.7711C62.2697 97.9186 62.3799 98.0354 62.5191 98.1216C62.66 98.2078 62.8207 98.2509 63.0013 98.2509C63.1356 98.2509 63.2607 98.2252 63.3767 98.1738C63.4927 98.1224 63.5938 98.0512 63.68 97.96C63.7678 97.8672 63.8357 97.762 63.8838 97.6443C63.9335 97.5267 63.9575 97.4024 63.9559 97.2715C63.9559 97.0974 63.9145 96.9367 63.8316 96.7892C63.7504 96.6417 63.6385 96.5232 63.496 96.4337C63.3552 96.3443 63.1936 96.2995 63.0113 96.2995ZM66.1102 100.714L68.2753 96.4288V96.394H65.7622V95.6234H69.2299V96.4114L67.0672 100.714H66.1102ZM70.2394 99.3297H71.1716C71.1832 99.4722 71.2313 99.5948 71.3158 99.6976C71.4003 99.7987 71.5113 99.8766 71.6489 99.9313C71.7864 99.9843 71.9397 100.011 72.1088 100.011C72.2877 100.011 72.4476 99.9801 72.5885 99.9188C72.7294 99.8559 72.8396 99.7664 72.9191 99.6504C73.0003 99.5327 73.0409 99.3902 73.0409 99.2228C73.0409 99.0687 73.002 98.9286 72.9241 98.8027C72.8479 98.6751 72.731 98.574 72.5736 98.4994C72.4162 98.4232 72.2148 98.3851 71.9695 98.3851H71.4649V97.7214L72.6432 96.4288V96.394H70.4905V95.6234H73.8065V96.2896L72.4394 97.7612V97.8009C72.6913 97.8208 72.9133 97.8738 73.1056 97.96C73.2994 98.0462 73.4619 98.1564 73.5928 98.2906C73.7237 98.4249 73.8223 98.5757 73.8886 98.743C73.9549 98.9104 73.988 99.0861 73.988 99.27C73.988 99.5683 73.906 99.831 73.7419 100.058C73.5795 100.285 73.3558 100.463 73.0708 100.592C72.7874 100.72 72.4642 100.784 72.1013 100.784C71.7533 100.784 71.4409 100.724 71.1641 100.605C70.8891 100.486 70.6695 100.317 70.5054 100.1C70.3413 99.8815 70.2527 99.6247 70.2394 99.3297ZM76.9887 100.784C76.7451 100.782 76.5073 100.74 76.2753 100.657C76.0433 100.573 75.8345 100.436 75.6489 100.247C75.4633 100.056 75.3158 99.8036 75.2064 99.4888C75.097 99.1723 75.0432 98.7803 75.0448 98.313C75.0448 97.8772 75.0912 97.4885 75.184 97.1472C75.2768 96.8058 75.4102 96.5174 75.5842 96.2821C75.7582 96.0451 75.9679 95.8645 76.2131 95.7402C76.4601 95.6159 76.736 95.5538 77.0409 95.5538C77.3608 95.5538 77.6441 95.6167 77.8911 95.7427C78.1396 95.8686 78.3402 96.041 78.4926 96.2597C78.6451 96.4768 78.7395 96.7221 78.776 96.9955H77.8687C77.8223 96.8 77.727 96.6442 77.5828 96.5282C77.4403 96.4105 77.2597 96.3517 77.0409 96.3517C76.6879 96.3517 76.4162 96.505 76.2256 96.8116C76.0367 97.1182 75.9414 97.5391 75.9397 98.0744H75.9745C76.0557 97.9285 76.1609 97.8034 76.2902 97.699C76.4195 97.5946 76.5653 97.5142 76.7277 97.4579C76.8918 97.3999 77.0649 97.3709 77.2472 97.3709C77.5455 97.3709 77.8132 97.4421 78.0502 97.5847C78.2888 97.7272 78.4777 97.9236 78.6169 98.1738C78.7561 98.4224 78.8249 98.7074 78.8232 99.0289C78.8249 99.3637 78.7487 99.6644 78.5945 99.9313C78.4404 100.196 78.2258 100.405 77.9507 100.558C77.6756 100.71 77.355 100.786 76.9887 100.784ZM76.9837 100.038C77.1644 100.038 77.326 99.9942 77.4685 99.9064C77.611 99.8186 77.7237 99.7001 77.8065 99.5509C77.8894 99.4018 77.93 99.2344 77.9283 99.0488C77.93 98.8665 77.8902 98.7016 77.809 98.5541C77.7295 98.4066 77.6193 98.2898 77.4784 98.2036C77.3376 98.1175 77.1768 98.0744 76.9962 98.0744C76.8619 98.0744 76.7368 98.1001 76.6208 98.1514C76.5048 98.2028 76.4037 98.2741 76.3176 98.3652C76.2314 98.4547 76.1634 98.5591 76.1137 98.6784C76.0657 98.7961 76.0408 98.922 76.0391 99.0563C76.0408 99.2336 76.0822 99.3968 76.1634 99.546C76.2446 99.6951 76.3565 99.8144 76.499 99.9039C76.6415 99.9934 76.8031 100.038 76.9837 100.038ZM81.7531 100.784C81.3835 100.784 81.0554 100.722 80.7687 100.597C80.4837 100.473 80.26 100.303 80.0976 100.088C79.9368 99.8708 79.8573 99.6247 79.8589 99.3496C79.8573 99.1358 79.9037 98.9394 79.9981 98.7604C80.0926 98.5815 80.2202 98.4323 80.3809 98.313C80.5433 98.192 80.724 98.115 80.9228 98.0818V98.047C80.661 97.989 80.4489 97.8556 80.2865 97.6468C80.1257 97.4363 80.0462 97.1936 80.0478 96.9185C80.0462 96.6566 80.1191 96.423 80.2666 96.2175C80.4141 96.012 80.6163 95.8504 80.8731 95.7327C81.13 95.6134 81.4233 95.5538 81.7531 95.5538C82.0796 95.5538 82.3704 95.6134 82.6256 95.7327C82.8825 95.8504 83.0846 96.012 83.2321 96.2175C83.3813 96.423 83.4559 96.6566 83.4559 96.9185C83.4559 97.1936 83.3738 97.4363 83.2098 97.6468C83.0474 97.8556 82.8377 97.989 82.5809 98.047V98.0818C82.7797 98.115 82.9587 98.192 83.1178 98.313C83.2785 98.4323 83.4061 98.5815 83.5006 98.7604C83.5967 98.9394 83.6448 99.1358 83.6448 99.3496C83.6448 99.6247 83.5636 99.8708 83.4012 100.088C83.2388 100.303 83.015 100.473 82.73 100.597C82.4466 100.722 82.121 100.784 81.7531 100.784ZM81.7531 100.073C81.9437 100.073 82.1094 100.041 82.2502 99.976C82.3911 99.9097 82.5005 99.8169 82.5784 99.6976C82.6563 99.5783 82.696 99.4407 82.6977 99.2849C82.696 99.1225 82.6538 98.9792 82.5709 98.8549C82.4897 98.729 82.3779 98.6304 82.2353 98.5591C82.0945 98.4878 81.9337 98.4522 81.7531 98.4522C81.5708 98.4522 81.4084 98.4878 81.2659 98.5591C81.1234 98.6304 81.0107 98.729 80.9278 98.8549C80.8466 98.9792 80.8068 99.1225 80.8085 99.2849C80.8068 99.4407 80.8449 99.5783 80.9228 99.6976C81.0007 99.8152 81.1101 99.9072 81.251 99.9735C81.3935 100.04 81.5609 100.073 81.7531 100.073ZM81.7531 97.7537C81.9089 97.7537 82.0464 97.7222 82.1657 97.6592C82.2867 97.5963 82.382 97.5084 82.4516 97.3957C82.5212 97.2831 82.5568 97.153 82.5585 97.0055C82.5568 96.8596 82.522 96.732 82.4541 96.6227C82.3861 96.5116 82.2917 96.4263 82.1707 96.3666C82.0497 96.3053 81.9105 96.2746 81.7531 96.2746C81.5923 96.2746 81.4507 96.3053 81.328 96.3666C81.207 96.4263 81.1126 96.5116 81.0446 96.6227C80.9784 96.732 80.946 96.8596 80.9477 97.0055C80.946 97.153 80.9792 97.2831 81.0471 97.3957C81.1167 97.5068 81.212 97.5946 81.333 97.6592C81.4556 97.7222 81.5957 97.7537 81.7531 97.7537Z" fill="#8E95A4"/>
<g clip-path="url(#clip0_3240_4330)">
<path d="M97 96.7143V96.0143C97 95.7343 97 95.5942 96.9455 95.4873C96.8976 95.3932 96.8211 95.3167 96.727 95.2688C96.62 95.2143 96.48 95.2143 96.2 95.2143H94.3C94.02 95.2143 93.88 95.2143 93.773 95.2688C93.6789 95.3167 93.6024 95.3932 93.5545 95.4873C93.5 95.5942 93.5 95.7343 93.5 96.0143V97.9143C93.5 98.1943 93.5 98.3343 93.5545 98.4413C93.6024 98.5354 93.6789 98.6118 93.773 98.6598C93.88 98.7143 94.02 98.7143 94.3 98.7143H95M95.8 100.214H97.7C97.98 100.214 98.12 100.214 98.227 100.16C98.3211 100.112 98.3976 100.035 98.4455 99.9413C98.5 99.8343 98.5 99.6943 98.5 99.4143V97.5143C98.5 97.2343 98.5 97.0942 98.4455 96.9873C98.3976 96.8932 98.3211 96.8167 98.227 96.7688C98.12 96.7143 97.98 96.7143 97.7 96.7143H95.8C95.52 96.7143 95.38 96.7143 95.273 96.7688C95.1789 96.8167 95.1024 96.8932 95.0545 96.9873C95 97.0942 95 97.2343 95 97.5143V99.4143C95 99.6943 95 99.8343 95.0545 99.9413C95.1024 100.035 95.1789 100.112 95.273 100.16C95.38 100.214 95.52 100.214 95.8 100.214Z" stroke="#8E95A4" stroke-opacity="0.5" stroke-width="0.6" stroke-linecap="round" stroke-linejoin="round"/>
</g>
</g>
<rect x="35" y="115.714" width="70" height="15.7143" rx="7.85714" fill="#D9DDE5"/>
<rect x="56.7861" y="120.714" width="26.4286" height="5.71429" rx="2.85714" fill="white"/>
</g>
<g filter="url(#filter3_d_3240_4330)">
<rect x="23" y="28.9286" width="95" height="85.1429" rx="10" fill="white" shape-rendering="crispEdges"/>
<rect x="23.2" y="29.1286" width="94.6" height="84.7429" rx="9.8" stroke="#D9DDE5" stroke-width="0.4" shape-rendering="crispEdges"/>
<g filter="url(#filter4_d_3240_4330)">
<rect x="49.9287" y="38.9286" width="41.1429" height="41.1429" rx="20.5714" fill="white"/>
<rect x="50.0787" y="39.0786" width="40.8429" height="40.8429" rx="20.4214" stroke="#F9FAFB" stroke-width="0.3"/>
<path fill-rule="evenodd" clip-rule="evenodd" d="M69.096 48.9775C69.51 48.6588 70.005 48.4999 70.5 48.5C70.995 48.4999 71.49 48.6588 71.904 48.9775L73.0776 49.8786L74.5484 49.6851C75.5835 49.5487 76.5793 50.1255 76.9786 51.088L77.5436 52.4567L78.9102 53.0209L78.9122 53.0217C79.8747 53.421 80.4513 54.4173 80.3149 55.4523L80.1215 56.9219L81.0232 58.0963C81.2614 58.4065 81.4105 58.7625 81.4702 59.13C81.5137 59.3979 81.5096 59.672 81.4579 59.9388C81.3915 60.2818 81.2465 60.6129 81.0232 60.9037L80.1215 62.0781L80.3149 63.5477C80.4513 64.5827 79.8747 65.5789 78.9122 65.9783L78.9102 65.9791L77.5436 66.5433L76.9786 67.912C76.5793 68.8745 75.5835 69.4513 74.5484 69.3149L73.0776 69.1214L71.904 70.0225C71.49 70.3412 70.995 70.5001 70.5 70.5C70.005 70.5001 69.51 70.3412 69.096 70.0225L67.9224 69.1214L66.4516 69.3149C65.4165 69.4513 64.4207 68.8745 64.0214 67.912L63.4564 66.5433L62.0898 65.9791L62.0878 65.9783C61.1253 65.5789 60.5487 64.5827 60.6851 63.5477L60.8785 62.0781L59.9768 60.9037C59.7175 60.566 59.5638 60.1741 59.5161 59.7722C59.4469 59.1894 59.6008 58.5859 59.9768 58.0963L60.8785 56.9219L60.6851 55.4523C60.5487 54.4173 61.1253 53.421 62.0878 53.0217L62.0898 53.0209L63.4564 52.4567L64.0214 51.088C64.4207 50.1255 65.4165 49.5487 66.4516 49.6851L67.9224 49.8786L69.096 48.9775ZM74.7071 57.7071C75.0976 57.3166 75.0976 56.6834 74.7071 56.2929C74.3166 55.9024 73.6834 55.9024 73.2929 56.2929L69.5 60.0858L68.2071 58.7929C67.8166 58.4024 67.1834 58.4024 66.7929 58.7929C66.4024 59.1834 66.4024 59.8166 66.7929 60.2071L68.7929 62.2071C69.1834 62.5976 69.8166 62.5976 70.2071 62.2071L74.7071 57.7071Z" fill="#17A34A"/>
</g>
<rect x="40.5" y="92.0714" width="60" height="5" rx="2.5" fill="#B0BAC9" fill-opacity="0.3"/>
<rect x="57" y="99.0714" width="27" height="5" rx="2.5" fill="#B0BAC9" fill-opacity="0.2"/>
<circle cx="108.5" cy="52.75" r="0.75" fill="#17A34A"/>
<circle cx="106.25" cy="47.5" r="1.5" fill="#17A34A"/>
<circle cx="102.5" cy="54.25" r="0.75" fill="#C3723C"/>
<circle cx="102.2" cy="47.95" r="0.45" fill="#17A34A"/>
<circle cx="96.2" cy="50.95" r="0.45" fill="#EBB305"/>
<circle cx="86.2" cy="40.95" r="0.45" fill="#EBB305"/>
<circle cx="94.2" cy="43.95" r="0.45" fill="#EBB305"/>
<circle cx="96.2" cy="60.95" r="0.45" fill="#17A34A"/>
<circle cx="0.75" cy="0.75" r="0.75" transform="matrix(1 0 0 -1 44.75 65.4)" fill="#17A34A"/>
<circle cx="1.5" cy="1.5" r="1.5" transform="matrix(1 0 0 -1 41.75 71.4)" fill="#17A34A"/>
<circle cx="0.75" cy="0.75" r="0.75" transform="matrix(1 0 0 -1 38.75 63.9)" fill="#C3723C"/>
<circle cx="0.45" cy="0.45" r="0.45" transform="matrix(1 0 0 -1 38.75 69.9)" fill="#17A34A"/>
<circle cx="0.45" cy="0.45" r="0.45" transform="matrix(1 0 0 -1 32.75 66.9)" fill="#EBB305"/>
<circle cx="0.45" cy="0.45" r="0.45" transform="matrix(1 0 0 -1 42.75 52.9)" fill="#EBB305"/>
<circle cx="0.45" cy="0.45" r="0.45" transform="matrix(1 0 0 -1 32.75 56.9)" fill="#17A34A"/>
</g>
</g>
<defs>
<filter id="filter0_d_3240_4330" x="-37" y="-33.4286" width="206" height="236.857" filterUnits="userSpaceOnUse" color-interpolation-filters="sRGB">
<feFlood flood-opacity="0" result="BackgroundImageFix"/>
<feColorMatrix in="SourceAlpha" type="matrix" values="0 0 0 0 0 0 0 0 0 0 0 0 0 0 0 0 0 0 127 0" result="hardAlpha"/>
<feOffset dx="-4" dy="4"/>
<feGaussianBlur stdDeviation="30"/>
<feComposite in2="hardAlpha" operator="out"/>
<feColorMatrix type="matrix" values="0 0 0 0 0.525 0 0 0 0 0.575 0 0 0 0 0.675 0 0 0 0.2 0"/>
<feBlend mode="normal" in2="BackgroundImageFix" result="effect1_dropShadow_3240_4330"/>
<feBlend mode="normal" in="SourceGraphic" in2="effect1_dropShadow_3240_4330" result="shape"/>
</filter>
<filter id="filter1_d_3240_4330" x="37.4287" y="19.5714" width="65.1426" height="65.1429" filterUnits="userSpaceOnUse" color-interpolation-filters="sRGB">
<feFlood flood-opacity="0" result="BackgroundImageFix"/>
<feColorMatrix in="SourceAlpha" type="matrix" values="0 0 0 0 0 0 0 0 0 0 0 0 0 0 0 0 0 0 127 0" result="hardAlpha"/>
<feMorphology radius="3" operator="erode" in="SourceAlpha" result="effect1_dropShadow_3240_4330"/>
<feOffset dy="6"/>
<feGaussianBlur stdDeviation="10"/>
<feComposite in2="hardAlpha" operator="out"/>
<feColorMatrix type="matrix" values="0 0 0 0 0.64 0 0 0 0 0.7 0 0 0 0 0.76 0 0 0 0.5 0"/>
<feBlend mode="normal" in2="BackgroundImageFix" result="effect1_dropShadow_3240_4330"/>
<feBlend mode="normal" in="SourceGraphic" in2="effect1_dropShadow_3240_4330" result="shape"/>
</filter>
<filter id="filter2_d_3240_4330" x="33" y="88.7143" width="74" height="20" filterUnits="userSpaceOnUse" color-interpolation-filters="sRGB">
<feFlood flood-opacity="0" result="BackgroundImageFix"/>
<feColorMatrix in="SourceAlpha" type="matrix" values="0 0 0 0 0 0 0 0 0 0 0 0 0 0 0 0 0 0 127 0" result="hardAlpha"/>
<feOffset dy="1"/>
<feGaussianBlur stdDeviation="1"/>
<feComposite in2="hardAlpha" operator="out"/>
<feColorMatrix type="matrix" values="0 0 0 0 0 0 0 0 0 0 0 0 0 0 0 0 0 0 0.03 0"/>
<feBlend mode="normal" in2="BackgroundImageFix" result="effect1_dropShadow_3240_4330"/>
<feBlend mode="normal" in="SourceGraphic" in2="effect1_dropShadow_3240_4330" result="shape"/>
</filter>
<filter id="filter3_d_3240_4330" x="-41" y="-27.0714" width="215" height="205.143" filterUnits="userSpaceOnUse" color-interpolation-filters="sRGB">
<feFlood flood-opacity="0" result="BackgroundImageFix"/>
<feColorMatrix in="SourceAlpha" type="matrix" values="0 0 0 0 0 0 0 0 0 0 0 0 0 0 0 0 0 0 127 0" result="hardAlpha"/>
<feOffset dx="-4" dy="4"/>
<feGaussianBlur stdDeviation="30"/>
<feComposite in2="hardAlpha" operator="out"/>
<feColorMatrix type="matrix" values="0 0 0 0 0.525 0 0 0 0 0.575 0 0 0 0 0.675 0 0 0 0.7 0"/>
<feBlend mode="normal" in2="BackgroundImageFix" result="effect1_dropShadow_3240_4330"/>
<feBlend mode="normal" in="SourceGraphic" in2="effect1_dropShadow_3240_4330" result="shape"/>
</filter>
<filter id="filter4_d_3240_4330" x="32.9287" y="27.9286" width="75.1426" height="75.1429" filterUnits="userSpaceOnUse" color-interpolation-filters="sRGB">
<feFlood flood-opacity="0" result="BackgroundImageFix"/>
<feColorMatrix in="SourceAlpha" type="matrix" values="0 0 0 0 0 0 0 0 0 0 0 0 0 0 0 0 0 0 127 0" result="hardAlpha"/>
<feMorphology radius="3" operator="erode" in="SourceAlpha" result="effect1_dropShadow_3240_4330"/>
<feOffset dy="6"/>
<feGaussianBlur stdDeviation="10"/>
<feComposite in2="hardAlpha" operator="out"/>
<feColorMatrix type="matrix" values="0 0 0 0 0.0901961 0 0 0 0 0.639216 0 0 0 0 0.290196 0 0 0 0.3 0"/>
<feBlend mode="normal" in2="BackgroundImageFix" result="effect1_dropShadow_3240_4330"/>
<feBlend mode="normal" in="SourceGraphic" in2="effect1_dropShadow_3240_4330" result="shape"/>
</filter>
<clipPath id="clip0_3240_4330">
<rect width="6" height="6" fill="white" transform="translate(93 94.7143)"/>
</clipPath>
</defs>
</svg>
